<svg width="786" height="571" viewBox="0 0 786 571" fill="none" xmlns="http://www.w3.org/2000/svg">
<g clip-path="url(#clip0_2_7)">
<path d="M457.844 100.661C472.575 100.661 484.517 88.7326 484.517 74.0186C484.517 59.3046 472.575 47.3765 457.844 47.3765C443.113 47.3765 431.171 59.3046 431.171 74.0186C431.171 88.7326 443.113 100.661 457.844 100.661Z" fill="#F2F2F2"/>
<path d="M664.754 496.059C704.4 465.897 723.336 415.212 711.482 366.861C711.187 365.66 710.876 364.462 710.549 363.266C702.69 334.565 683.246 307.288 654.907 298.118C631.112 290.418 605.139 296.339 580.315 293.277C531.585 287.266 493.805 247.883 467.222 206.648C440.639 165.414 420.21 119.258 384.887 85.1919C326.663 29.0402 231.685 16.9507 159.495 53.5013C87.3056 90.0519 41.3217 171.142 43.2828 251.959C45.244 332.776 93.277 410.043 163.033 451.038C188.658 466.098 218.297 476.766 247.793 473.033C273.386 469.794 296.641 456.058 322.114 451.98C362.163 445.568 401.957 463.655 436.597 484.732C471.237 505.808 504.696 530.79 544.059 540.561C582.281 550.049 629.634 522.778 664.754 496.059Z" fill="#F2F2F2"/>
<path d="M607.792 55.1984C606.923 54.6196 606.044 54.0708 605.175 53.5121C580.052 37.4632 553.124 24.4252 524.948 14.6676L518.415 104.689H476.998V1.52657C474.391 0.987762 471.764 0.478884 469.137 -6.10352e-05V104.689H419.918C392.822 104.689 366.837 93.9382 347.677 74.801C328.518 55.6639 317.754 29.7083 317.754 2.64423V2.64414C315.117 3.21289 312.5 3.82155 309.883 4.47012V104.689H269.794L263.571 18.8484C234.616 29.9403 207.127 44.5266 181.716 62.2828C181.277 62.5821 180.837 62.8914 180.408 63.1908C178.2 64.7374 176.022 66.3139 173.855 67.9104V411.344H292.001L289.913 382.457L278.425 223.857H509.774L498.286 382.457L496.198 411.344H613.036V58.6707C611.298 57.4933 609.55 56.3359 607.792 55.1984ZM309.883 197.665H276.528L270.364 112.552H309.883V197.665ZM469.137 197.665H413.115V195.978C413.115 195.168 412.955 194.365 412.644 193.616C412.333 192.867 411.878 192.187 411.303 191.614C410.729 191.042 410.047 190.588 409.297 190.278C408.547 189.969 407.743 189.81 406.931 189.812H382.577C381.766 189.812 380.963 189.971 380.214 190.281C379.465 190.59 378.784 191.045 378.211 191.617C377.637 192.19 377.183 192.87 376.873 193.618C376.562 194.366 376.403 195.168 376.403 195.978V197.665H317.755V112.552H469.137V197.665ZM476.998 197.665V112.552H517.846L511.682 197.665H476.998Z" fill="#3F3D56"/>
<path d="M-3.05176e-05 433.336C8.67817 443.607 18.0646 453.259 28.0907 462.223L757.909 463.22C767.935 454.257 777.322 444.605 786 434.334L-3.05176e-05 433.336Z" fill="#3F3D56"/>
<path d="M494.914 340.841V426.356C494.915 427.446 495.348 428.491 496.12 429.261C496.891 430.032 497.937 430.465 499.028 430.466H625.9C626.992 430.465 628.038 430.032 628.809 429.261C629.581 428.491 630.014 427.446 630.015 426.356V340.841C630.013 339.752 629.578 338.708 628.807 337.939C628.036 337.169 626.991 336.736 625.9 336.735H499.028C497.938 336.736 496.893 337.169 496.122 337.939C495.351 338.708 494.916 339.752 494.914 340.841Z" fill="#3F3D56"/>
<path d="M497.89 341.905V425.301C497.891 425.883 498.123 426.442 498.535 426.853C498.947 427.265 499.506 427.497 500.089 427.498H624.844C625.427 427.497 625.986 427.265 626.398 426.853C626.811 426.442 627.043 425.883 627.044 425.301V341.905C627.043 341.322 626.812 340.762 626.4 340.35C625.987 339.937 625.428 339.705 624.844 339.703H500.089C499.505 339.705 498.946 339.937 498.534 340.35C498.122 340.762 497.89 341.322 497.89 341.905Z" fill="#FB0100"/>
<path d="M492.26 443.034C492.493 443.325 492.788 443.56 493.124 443.72C493.461 443.881 493.829 443.964 494.202 443.962H630.052C630.423 443.961 630.79 443.878 631.125 443.718C631.461 443.559 631.756 443.326 631.99 443.038C632.224 442.75 632.391 442.413 632.478 442.052C632.566 441.692 632.572 441.316 632.495 440.953L630.387 430.948C630.299 430.54 630.111 430.16 629.839 429.843C629.567 429.526 629.22 429.282 628.83 429.134C628.548 429.023 628.247 428.966 627.943 428.967H496.302C495.999 428.966 495.698 429.023 495.415 429.134C495.025 429.282 494.678 429.526 494.406 429.843C494.134 430.16 493.946 430.54 493.859 430.948L491.75 440.953C491.675 441.316 491.682 441.691 491.77 442.051C491.858 442.411 492.026 442.747 492.26 443.034Z" fill="#2F2E41"/>
<path d="M623.282 433.276H626.491C626.76 433.276 626.978 433.058 626.978 432.789V431.256C626.978 430.987 626.76 430.768 626.491 430.768H623.282C623.012 430.768 622.794 430.987 622.794 431.256V432.789C622.794 433.058 623.012 433.276 623.282 433.276Z" fill="#3F3D56"/>
<path d="M614.914 433.276H618.122C618.392 433.276 618.61 433.058 618.61 432.789V431.256C618.61 430.987 618.392 430.768 618.122 430.768H614.914C614.644 430.768 614.426 430.987 614.426 431.256V432.789C614.426 433.058 614.644 433.276 614.914 433.276Z" fill="#3F3D56"/>
<path d="M606.545 433.276H609.754C610.023 433.276 610.242 433.058 610.242 432.789V431.256C610.242 430.987 610.023 430.768 609.754 430.768H606.545C606.276 430.768 606.057 430.987 606.057 431.256V432.789C606.057 433.058 606.276 433.276 606.545 433.276Z" fill="#3F3D56"/>
<path d="M598.177 433.276H601.386C601.655 433.276 601.873 433.058 601.873 432.789V431.256C601.873 430.987 601.655 430.768 601.386 430.768H598.177C597.908 430.768 597.689 430.987 597.689 431.256V432.789C597.689 433.058 597.908 433.276 598.177 433.276Z" fill="#3F3D56"/>
<path d="M589.809 433.276H593.018C593.287 433.276 593.505 433.058 593.505 432.789V431.256C593.505 430.987 593.287 430.768 593.018 430.768H589.809C589.539 430.768 589.321 430.987 589.321 431.256V432.789C589.321 433.058 589.539 433.276 589.809 433.276Z" fill="#3F3D56"/>
<path d="M581.441 433.276H584.649C584.919 433.276 585.137 433.058 585.137 432.789V431.256C585.137 430.987 584.919 430.768 584.649 430.768H581.441C581.171 430.768 580.953 430.987 580.953 431.256V432.789C580.953 433.058 581.171 433.276 581.441 433.276Z" fill="#3F3D56"/>
<path d="M573.072 433.276H576.281C576.55 433.276 576.769 433.058 576.769 432.789V431.256C576.769 430.987 576.55 430.768 576.281 430.768H573.072C572.803 430.768 572.585 430.987 572.585 431.256V432.789C572.585 433.058 572.803 433.276 573.072 433.276Z" fill="#3F3D56"/>
<path d="M564.704 433.276H567.913C568.182 433.276 568.4 433.058 568.4 432.789V431.256C568.4 430.987 568.182 430.768 567.913 430.768H564.704C564.435 430.768 564.216 430.987 564.216 431.256V432.789C564.216 433.058 564.435 433.276 564.704 433.276Z" fill="#3F3D56"/>
<path d="M556.336 433.276H559.545C559.814 433.276 560.032 433.058 560.032 432.789V431.256C560.032 430.987 559.814 430.768 559.545 430.768H556.336C556.066 430.768 555.848 430.987 555.848 431.256V432.789C555.848 433.058 556.066 433.276 556.336 433.276Z" fill="#3F3D56"/>
<path d="M547.968 433.276H551.176C551.446 433.276 551.664 433.058 551.664 432.789V431.256C551.664 430.987 551.446 430.768 551.176 430.768H547.968C547.698 430.768 547.48 430.987 547.48 431.256V432.789C547.48 433.058 547.698 433.276 547.968 433.276Z" fill="#3F3D56"/>
<path d="M539.599 433.276H542.808C543.077 433.276 543.296 433.058 543.296 432.789V431.256C543.296 430.987 543.077 430.768 542.808 430.768H539.599C539.33 430.768 539.112 430.987 539.112 431.256V432.789C539.112 433.058 539.33 433.276 539.599 433.276Z" fill="#3F3D56"/>
<path d="M531.231 433.276H534.44C534.709 433.276 534.927 433.058 534.927 432.789V431.256C534.927 430.987 534.709 430.768 534.44 430.768H531.231C530.962 430.768 530.743 430.987 530.743 431.256V432.789C530.743 433.058 530.962 433.276 531.231 433.276Z" fill="#3F3D56"/>
<path d="M522.863 433.276H526.071C526.341 433.276 526.559 433.058 526.559 432.789V431.256C526.559 430.987 526.341 430.768 526.071 430.768H522.863C522.593 430.768 522.375 430.987 522.375 431.256V432.789C522.375 433.058 522.593 433.276 522.863 433.276Z" fill="#3F3D56"/>
<path d="M514.494 433.276H517.703C517.973 433.276 518.191 433.058 518.191 432.789V431.256C518.191 430.987 517.973 430.768 517.703 430.768H514.494C514.225 430.768 514.007 430.987 514.007 431.256V432.789C514.007 433.058 514.225 433.276 514.494 433.276Z" fill="#3F3D56"/>
<path d="M506.126 433.276H509.335C509.604 433.276 509.823 433.058 509.823 432.789V431.256C509.823 430.987 509.604 430.768 509.335 430.768H506.126C505.857 430.768 505.639 430.987 505.639 431.256V432.789C505.639 433.058 505.857 433.276 506.126 433.276Z" fill="#3F3D56"/>
<path d="M497.758 433.276H500.967C501.236 433.276 501.454 433.058 501.454 432.789V431.256C501.454 430.987 501.236 430.768 500.967 430.768H497.758C497.489 430.768 497.27 430.987 497.27 431.256V432.789C497.27 433.058 497.489 433.276 497.758 433.276Z" fill="#3F3D56"/>
<path d="M623.381 437.455H626.589C626.859 437.455 627.077 437.237 627.077 436.968V435.435C627.077 435.166 626.859 434.948 626.589 434.948H623.381C623.111 434.948 622.893 435.166 622.893 435.435V436.968C622.893 437.237 623.111 437.455 623.381 437.455Z" fill="#3F3D56"/>
<path d="M615.012 437.455H618.221C618.49 437.455 618.709 437.237 618.709 436.968V435.435C618.709 435.166 618.49 434.948 618.221 434.948H615.012C614.743 434.948 614.525 435.166 614.525 435.435V436.968C614.525 437.237 614.743 437.455 615.012 437.455Z" fill="#3F3D56"/>
<path d="M606.644 437.455H609.853C610.122 437.455 610.341 437.237 610.341 436.968V435.435C610.341 435.166 610.122 434.948 609.853 434.948H606.644C606.375 434.948 606.156 435.166 606.156 435.435V436.968C606.156 437.237 606.375 437.455 606.644 437.455Z" fill="#3F3D56"/>
<path d="M598.276 437.455H601.485C601.754 437.455 601.972 437.237 601.972 436.968V435.435C601.972 435.166 601.754 434.948 601.485 434.948H598.276C598.007 434.948 597.788 435.166 597.788 435.435V436.968C597.788 437.237 598.007 437.455 598.276 437.455Z" fill="#3F3D56"/>
<path d="M589.908 437.455H593.116C593.386 437.455 593.604 437.237 593.604 436.968V435.435C593.604 435.166 593.386 434.948 593.116 434.948H589.908C589.638 434.948 589.42 435.166 589.42 435.435V436.968C589.42 437.237 589.638 437.455 589.908 437.455Z" fill="#3F3D56"/>
<path d="M581.539 437.455H584.748C585.017 437.455 585.236 437.237 585.236 436.968V435.435C585.236 435.166 585.017 434.948 584.748 434.948H581.539C581.27 434.948 581.052 435.166 581.052 435.435V436.968C581.052 437.237 581.27 437.455 581.539 437.455Z" fill="#3F3D56"/>
<path d="M573.171 437.455H576.38C576.649 437.455 576.868 437.237 576.868 436.968V435.435C576.868 435.166 576.649 434.948 576.38 434.948H573.171C572.902 434.948 572.683 435.166 572.683 435.435V436.968C572.683 437.237 572.902 437.455 573.171 437.455Z" fill="#3F3D56"/>
<path d="M564.803 437.455H568.012C568.281 437.455 568.499 437.237 568.499 436.968V435.435C568.499 435.166 568.281 434.948 568.012 434.948H564.803C564.533 434.948 564.315 435.166 564.315 435.435V436.968C564.315 437.237 564.533 437.455 564.803 437.455Z" fill="#3F3D56"/>
<path d="M556.435 437.455H559.643C559.913 437.455 560.131 437.237 560.131 436.968V435.435C560.131 435.166 559.913 434.948 559.643 434.948H556.435C556.165 434.948 555.947 435.166 555.947 435.435V436.968C555.947 437.237 556.165 437.455 556.435 437.455Z" fill="#3F3D56"/>
<path d="M548.066 437.455H551.275C551.544 437.455 551.763 437.237 551.763 436.968V435.435C551.763 435.166 551.544 434.948 551.275 434.948H548.066C547.797 434.948 547.579 435.166 547.579 435.435V436.968C547.579 437.237 547.797 437.455 548.066 437.455Z" fill="#3F3D56"/>
<path d="M539.698 437.455H542.907C543.176 437.455 543.394 437.237 543.394 436.968V435.435C543.394 435.166 543.176 434.948 542.907 434.948H539.698C539.429 434.948 539.21 435.166 539.21 435.435V436.968C539.21 437.237 539.429 437.455 539.698 437.455Z" fill="#3F3D56"/>
<path d="M531.33 437.455H534.539C534.808 437.455 535.026 437.237 535.026 436.968V435.435C535.026 435.166 534.808 434.948 534.539 434.948H531.33C531.061 434.948 530.842 435.166 530.842 435.435V436.968C530.842 437.237 531.061 437.455 531.33 437.455Z" fill="#3F3D56"/>
<path d="M522.962 437.455H526.17C526.44 437.455 526.658 437.237 526.658 436.968V435.435C526.658 435.166 526.44 434.948 526.17 434.948H522.962C522.692 434.948 522.474 435.166 522.474 435.435V436.968C522.474 437.237 522.692 437.455 522.962 437.455Z" fill="#3F3D56"/>
<path d="M514.593 437.455H517.802C518.071 437.455 518.29 437.237 518.29 436.968V435.435C518.29 435.166 518.071 434.948 517.802 434.948H514.593C514.324 434.948 514.106 435.166 514.106 435.435V436.968C514.106 437.237 514.324 437.455 514.593 437.455Z" fill="#3F3D56"/>
<path d="M506.225 437.455H509.434C509.703 437.455 509.922 437.237 509.922 436.968V435.435C509.922 435.166 509.703 434.948 509.434 434.948H506.225C505.956 434.948 505.737 435.166 505.737 435.435V436.968C505.737 437.237 505.956 437.455 506.225 437.455Z" fill="#3F3D56"/>
<path d="M497.857 437.455H501.066C501.335 437.455 501.553 437.237 501.553 436.968V435.435C501.553 435.166 501.335 434.948 501.066 434.948H497.857C497.587 434.948 497.369 435.166 497.369 435.435V436.968C497.369 437.237 497.587 437.455 497.857 437.455Z" fill="#3F3D56"/>
<path d="M553.924 442.47H586.422C586.691 442.47 586.909 442.252 586.909 441.983V440.45C586.909 440.181 586.691 439.963 586.422 439.963H553.924C553.655 439.963 553.436 440.181 553.436 440.45V441.983C553.436 442.252 553.655 442.47 553.924 442.47Z" fill="#3F3D56"/>
<path d="M519.494 357.949H516.653C515.792 357.949 515.094 358.646 515.094 359.506C515.094 360.367 515.792 361.064 516.653 361.064H519.494C520.355 361.064 521.053 360.367 521.053 359.506C521.053 358.646 520.355 357.949 519.494 357.949Z" fill="white"/>
<path d="M551.983 357.949H549.142C548.281 357.949 547.583 358.646 547.583 359.506C547.583 360.367 548.281 361.064 549.142 361.064H551.983C552.844 361.064 553.543 360.367 553.543 359.506C553.543 358.646 552.844 357.949 551.983 357.949Z" fill="white"/>
<path d="M561.188 357.949H558.348C557.486 357.949 556.788 358.646 556.788 359.506C556.788 360.367 557.486 361.064 558.348 361.064H561.188C562.05 361.064 562.748 360.367 562.748 359.506C562.748 358.646 562.05 357.949 561.188 357.949Z" fill="white"/>
<path d="M543.146 357.689H525.49C524.629 357.689 523.931 358.386 523.931 359.247C523.931 360.107 524.629 360.804 525.49 360.804H543.146C544.007 360.804 544.705 360.107 544.705 359.247C544.705 358.386 544.007 357.689 543.146 357.689Z" fill="white"/>
<path d="M586.465 357.689H568.809C567.948 357.689 567.25 358.386 567.25 359.247C567.25 360.107 567.948 360.804 568.809 360.804H586.465C587.326 360.804 588.024 360.107 588.024 359.247C588.024 358.386 587.326 357.689 586.465 357.689Z" fill="white"/>
<path d="M528.158 364.98H525.317C524.456 364.98 523.758 365.677 523.758 366.537C523.758 367.398 524.456 368.095 525.317 368.095H528.158C529.019 368.095 529.717 367.398 529.717 366.537C529.717 365.677 529.019 364.98 528.158 364.98Z" fill="white"/>
<path d="M560.647 364.98H557.806C556.945 364.98 556.247 365.677 556.247 366.537C556.247 367.398 556.945 368.095 557.806 368.095H560.647C561.508 368.095 562.206 367.398 562.206 366.537C562.206 365.677 561.508 364.98 560.647 364.98Z" fill="white"/>
<path d="M569.852 364.98H567.011C566.15 364.98 565.452 365.677 565.452 366.537C565.452 367.398 566.15 368.095 567.011 368.095H569.852C570.713 368.095 571.411 367.398 571.411 366.537C571.411 365.677 570.713 364.98 569.852 364.98Z" fill="white"/>
<path d="M551.81 364.72H534.154C533.293 364.72 532.595 365.417 532.595 366.278C532.595 367.138 533.293 367.835 534.154 367.835H551.81C552.671 367.835 553.369 367.138 553.369 366.278C553.369 365.417 552.671 364.72 551.81 364.72Z" fill="white"/>
<path d="M595.128 364.72H577.473C576.612 364.72 575.913 365.417 575.913 366.278C575.913 367.138 576.612 367.835 577.473 367.835H595.128C595.99 367.835 596.688 367.138 596.688 366.278C596.688 365.417 595.99 364.72 595.128 364.72Z" fill="white"/>
<path d="M536.821 372.011H533.981C533.119 372.011 532.421 372.708 532.421 373.569C532.421 374.429 533.119 375.126 533.981 375.126H536.821C537.683 375.126 538.381 374.429 538.381 373.569C538.381 372.708 537.683 372.011 536.821 372.011Z" fill="white"/>
<path d="M569.311 372.011H566.47C565.609 372.011 564.91 372.708 564.91 373.569C564.91 374.429 565.609 375.126 566.47 375.126H569.311C570.172 375.126 570.87 374.429 570.87 373.569C570.87 372.708 570.172 372.011 569.311 372.011Z" fill="white"/>
<path d="M578.516 372.011H575.675C574.814 372.011 574.116 372.708 574.116 373.569C574.116 374.429 574.814 375.126 575.675 375.126H578.516C579.377 375.126 580.075 374.429 580.075 373.569C580.075 372.708 579.377 372.011 578.516 372.011Z" fill="white"/>
<path d="M560.473 371.751H542.818C541.957 371.751 541.258 372.449 541.258 373.309C541.258 374.169 541.957 374.866 542.818 374.866H560.473C561.335 374.866 562.033 374.169 562.033 373.309C562.033 372.449 561.335 371.751 560.473 371.751Z" fill="white"/>
<path d="M603.792 371.751H586.137C585.275 371.751 584.577 372.449 584.577 373.309C584.577 374.169 585.275 374.866 586.137 374.866H603.792C604.654 374.866 605.352 374.169 605.352 373.309C605.352 372.449 604.654 371.751 603.792 371.751Z" fill="white"/>
<path d="M545.485 379.042H542.644C541.783 379.042 541.085 379.739 541.085 380.6C541.085 381.46 541.783 382.157 542.644 382.157H545.485C546.346 382.157 547.045 381.46 547.045 380.6C547.045 379.739 546.346 379.042 545.485 379.042Z" fill="white"/>
<path d="M577.974 379.042H575.134C574.272 379.042 573.574 379.739 573.574 380.6C573.574 381.46 574.272 382.157 575.134 382.157H577.974C578.836 382.157 579.534 381.46 579.534 380.6C579.534 379.739 578.836 379.042 577.974 379.042Z" fill="white"/>
<path d="M587.18 379.042H584.339C583.478 379.042 582.779 379.739 582.779 380.6C582.779 381.46 583.478 382.157 584.339 382.157H587.18C588.041 382.157 588.739 381.46 588.739 380.6C588.739 379.739 588.041 379.042 587.18 379.042Z" fill="white"/>
<path d="M569.137 378.782H551.482C550.62 378.782 549.922 379.48 549.922 380.34C549.922 381.2 550.62 381.898 551.482 381.898H569.137C569.998 381.898 570.697 381.2 570.697 380.34C570.697 379.48 569.998 378.782 569.137 378.782Z" fill="white"/>
<path d="M551.983 407.001H549.142C548.281 407.001 547.583 407.698 547.583 408.559C547.583 409.419 548.281 410.116 549.142 410.116H551.983C552.844 410.116 553.543 409.419 553.543 408.559C553.543 407.698 552.844 407.001 551.983 407.001Z" fill="white"/>
<path d="M561.188 407.001H558.348C557.486 407.001 556.788 407.698 556.788 408.559C556.788 409.419 557.486 410.116 558.348 410.116H561.188C562.05 410.116 562.748 409.419 562.748 408.559C562.748 407.698 562.05 407.001 561.188 407.001Z" fill="white"/>
<path d="M586.465 407.261H568.809C567.948 407.261 567.25 407.958 567.25 408.818C567.25 409.679 567.948 410.376 568.809 410.376H586.465C587.326 410.376 588.024 409.679 588.024 408.818C588.024 407.958 587.326 407.261 586.465 407.261Z" fill="white"/>
<path d="M519.494 407.001H516.653C515.792 407.001 515.094 407.698 515.094 408.559C515.094 409.419 515.792 410.116 516.653 410.116H519.494C520.355 410.116 521.053 409.419 521.053 408.559C521.053 407.698 520.355 407.001 519.494 407.001Z" fill="white"/>
<path d="M543.146 407.261H525.49C524.629 407.261 523.931 407.958 523.931 408.818C523.931 409.679 524.629 410.376 525.49 410.376H543.146C544.007 410.376 544.705 409.679 544.705 408.818C544.705 407.958 544.007 407.261 543.146 407.261Z" fill="white"/>
<path d="M528.158 399.97H525.317C524.456 399.97 523.758 400.667 523.758 401.527C523.758 402.388 524.456 403.085 525.317 403.085H528.158C529.019 403.085 529.717 402.388 529.717 401.527C529.717 400.667 529.019 399.97 528.158 399.97Z" fill="white"/>
<path d="M560.647 399.97H557.806C556.945 399.97 556.247 400.667 556.247 401.527C556.247 402.388 556.945 403.085 557.806 403.085H560.647C561.508 403.085 562.206 402.388 562.206 401.527C562.206 400.667 561.508 399.97 560.647 399.97Z" fill="white"/>
<path d="M569.852 399.97H567.011C566.15 399.97 565.452 400.667 565.452 401.527C565.452 402.388 566.15 403.085 567.011 403.085H569.852C570.713 403.085 571.411 402.388 571.411 401.527C571.411 400.667 570.713 399.97 569.852 399.97Z" fill="white"/>
<path d="M551.81 400.23H534.154C533.293 400.23 532.595 400.927 532.595 401.787C532.595 402.647 533.293 403.345 534.154 403.345H551.81C552.671 403.345 553.369 402.647 553.369 401.787C553.369 400.927 552.671 400.23 551.81 400.23Z" fill="white"/>
<path d="M536.821 392.939H533.981C533.119 392.939 532.421 393.636 532.421 394.496C532.421 395.357 533.119 396.054 533.981 396.054H536.821C537.683 396.054 538.381 395.357 538.381 394.496C538.381 393.636 537.683 392.939 536.821 392.939Z" fill="white"/>
<path d="M569.311 392.939H566.47C565.609 392.939 564.91 393.636 564.91 394.496C564.91 395.357 565.609 396.054 566.47 396.054H569.311C570.172 396.054 570.87 395.357 570.87 394.496C570.87 393.636 570.172 392.939 569.311 392.939Z" fill="white"/>
<path d="M578.516 392.939H575.675C574.814 392.939 574.116 393.636 574.116 394.496C574.116 395.357 574.814 396.054 575.675 396.054H578.516C579.377 396.054 580.075 395.357 580.075 394.496C580.075 393.636 579.377 392.939 578.516 392.939Z" fill="white"/>
<path d="M560.473 393.198H542.818C541.957 393.198 541.258 393.896 541.258 394.756C541.258 395.616 541.957 396.314 542.818 396.314H560.473C561.335 396.314 562.033 395.616 562.033 394.756C562.033 393.896 561.335 393.198 560.473 393.198Z" fill="white"/>
<path d="M545.485 385.908H542.644C541.783 385.908 541.085 386.605 541.085 387.465C541.085 388.325 541.783 389.023 542.644 389.023H545.485C546.346 389.023 547.045 388.325 547.045 387.465C547.045 386.605 546.346 385.908 545.485 385.908Z" fill="white"/>
<path d="M577.974 385.908H575.134C574.272 385.908 573.574 386.605 573.574 387.465C573.574 388.325 574.272 389.023 575.134 389.023H577.974C578.836 389.023 579.534 388.325 579.534 387.465C579.534 386.605 578.836 385.908 577.974 385.908Z" fill="white"/>
<path d="M587.18 385.908H584.339C583.478 385.908 582.779 386.605 582.779 387.465C582.779 388.325 583.478 389.023 584.339 389.023H587.18C588.041 389.023 588.739 388.325 588.739 387.465C588.739 386.605 588.041 385.908 587.18 385.908Z" fill="white"/>
<path d="M569.137 386.167H551.482C550.62 386.167 549.922 386.865 549.922 387.725C549.922 388.585 550.62 389.283 551.482 389.283H569.137C569.998 389.283 570.697 388.585 570.697 387.725C570.697 386.865 569.998 386.167 569.137 386.167Z" fill="white"/>
<path d="M504.391 489.404L491.055 468.348L532.914 435.019L550.191 415.9C552.436 413.416 555.294 411.564 558.479 410.529C561.665 409.494 565.067 409.312 568.345 410.002C571.623 410.692 574.663 412.228 577.16 414.459C579.657 416.69 581.524 419.536 582.575 422.713C584.133 427.421 583.798 432.55 581.641 437.016C579.485 441.482 575.675 444.937 571.017 446.651L543.697 456.704L504.391 489.404Z" fill="#FFB6B6"/>
<path d="M191.49 336.739V439.074H263.265V336.739C263.267 336.003 263.031 335.286 262.595 334.693C262.158 334.101 261.542 333.664 260.838 333.446C260.506 333.337 260.158 333.283 259.809 333.287H194.957C194.502 333.286 194.052 333.374 193.631 333.547C193.211 333.721 192.829 333.975 192.507 334.295C192.185 334.616 191.93 334.997 191.755 335.416C191.581 335.835 191.491 336.285 191.49 336.739ZM219.501 371.902C219.52 369.884 220.335 367.956 221.77 366.536C223.205 365.116 225.143 364.319 227.163 364.319C229.183 364.319 231.121 365.116 232.556 366.536C233.991 367.956 234.806 369.884 234.825 371.902V383.775C234.815 385.798 234.003 387.735 232.567 389.162C231.131 390.589 229.188 391.39 227.163 391.39C225.138 391.39 223.195 390.589 221.759 389.162C220.323 387.735 219.511 385.798 219.501 383.775V371.902Z" fill="#2F2E41"/>
<path d="M191.27 435.801V445.669C191.272 446.18 191.475 446.67 191.836 447.033C192.197 447.395 192.687 447.601 193.198 447.605H261.557C262.069 447.602 262.56 447.397 262.921 447.035C263.282 446.672 263.485 446.181 263.485 445.669V435.801H191.27Z" fill="#3F3D56"/>
<path d="M78.578 182.559V369.407C78.5799 371.788 79.5277 374.071 81.2134 375.755C82.899 377.439 85.1847 378.385 87.5686 378.387H364.779C367.163 378.385 369.449 377.439 371.135 375.755C372.82 374.071 373.768 371.788 373.77 369.407V182.559C373.764 180.18 372.815 177.9 371.13 176.219C369.445 174.537 367.161 173.592 364.779 173.589H87.5686C85.1868 173.592 82.9033 174.537 81.2182 176.219C79.533 177.9 78.5837 180.18 78.578 182.559Z" fill="#3F3D56"/>
<path d="M85.0812 184.884V367.102C85.0834 368.374 85.5904 369.594 86.491 370.493C87.3916 371.393 88.6125 371.899 89.8862 371.902H362.472C363.746 371.899 364.966 371.393 365.867 370.493C366.768 369.594 367.275 368.374 367.277 367.102V184.884C367.277 183.61 366.771 182.388 365.87 181.486C364.969 180.585 363.747 180.077 362.472 180.074H89.8862C88.611 180.077 87.3889 180.585 86.4881 181.486C85.5873 182.388 85.0814 183.61 85.0812 184.884Z" fill="white"/>
<path d="M135.668 446.936C135.946 447.284 136.299 447.564 136.7 447.756C137.101 447.948 137.541 448.046 137.986 448.044H300.157C300.6 448.043 301.038 447.944 301.438 447.753C301.839 447.562 302.191 447.285 302.471 446.941C302.75 446.597 302.949 446.195 303.054 445.764C303.158 445.334 303.165 444.885 303.074 444.452L300.556 432.508C300.452 432.021 300.227 431.568 299.903 431.19C299.578 430.811 299.164 430.52 298.698 430.343C298.361 430.211 298.002 430.143 297.64 430.143H140.493C140.131 430.143 139.772 430.211 139.435 430.343C138.969 430.52 138.554 430.811 138.23 431.19C137.905 431.568 137.681 432.021 137.576 432.508L135.059 444.452C134.97 444.885 134.978 445.333 135.083 445.763C135.189 446.192 135.388 446.593 135.668 446.936Z" fill="#2F2E41"/>
<path d="M353.626 205.176H98.5683C98.3032 205.17 98.0509 205.06 97.8655 204.871C97.6801 204.682 97.5763 204.427 97.5763 204.162C97.5763 203.898 97.6801 203.643 97.8655 203.454C98.0509 203.265 98.3032 203.155 98.5683 203.149H353.626C353.891 203.155 354.143 203.265 354.328 203.454C354.514 203.643 354.618 203.898 354.618 204.162C354.618 204.427 354.514 204.682 354.328 204.871C354.143 205.06 353.891 205.17 353.626 205.176Z" fill="#3F3D56"/>
<path d="M115.93 197.977C119.213 197.977 121.875 195.259 121.875 191.907C121.875 188.555 119.213 185.837 115.93 185.837C112.647 185.837 109.986 188.555 109.986 191.907C109.986 195.259 112.647 197.977 115.93 197.977Z" fill="#3F3D56"/>
<path d="M136.465 197.977C139.748 197.977 142.409 195.259 142.409 191.907C142.409 188.555 139.748 185.837 136.465 185.837C133.182 185.837 130.521 188.555 130.521 191.907C130.521 195.259 133.182 197.977 136.465 197.977Z" fill="#3F3D56"/>
<path d="M157 197.977C160.282 197.977 162.944 195.259 162.944 191.907C162.944 188.555 160.282 185.837 157 185.837C153.717 185.837 151.055 188.555 151.055 191.907C151.055 195.259 153.717 197.977 157 197.977Z" fill="#3F3D56"/>
<path d="M341.26 187.338H326.676C326.387 187.345 326.113 187.464 325.911 187.67C325.71 187.876 325.597 188.153 325.597 188.441C325.597 188.729 325.71 189.005 325.911 189.212C326.113 189.418 326.387 189.537 326.676 189.543H341.26C341.55 189.539 341.827 189.421 342.031 189.215C342.235 189.009 342.349 188.731 342.349 188.441C342.349 188.151 342.235 187.873 342.031 187.667C341.827 187.46 341.55 187.342 341.26 187.338Z" fill="#3F3D56"/>
<path d="M341.26 191.479H326.676C326.387 191.485 326.112 191.604 325.911 191.811C325.709 192.017 325.596 192.293 325.596 192.582C325.596 192.87 325.709 193.147 325.911 193.353C326.112 193.559 326.387 193.678 326.676 193.684H341.26C341.551 193.681 341.828 193.563 342.032 193.357C342.237 193.15 342.351 192.872 342.351 192.582C342.351 192.292 342.237 192.013 342.032 191.807C341.828 191.6 341.551 191.483 341.26 191.479Z" fill="#3F3D56"/>
<path d="M341.26 195.62H326.676C326.387 195.627 326.113 195.746 325.911 195.952C325.71 196.158 325.597 196.434 325.597 196.722C325.597 197.011 325.71 197.287 325.911 197.493C326.113 197.699 326.387 197.818 326.676 197.825H341.26C341.55 197.821 341.827 197.703 342.031 197.497C342.235 197.29 342.349 197.012 342.349 196.722C342.349 196.433 342.235 196.155 342.031 195.948C341.827 195.742 341.55 195.624 341.26 195.62Z" fill="#3F3D56"/>
<path d="M692.873 440.132C693.313 441.412 694.148 442.519 695.258 443.296C696.367 444.072 697.695 444.478 699.05 444.453L725.514 443.773C726.878 443.746 728.198 443.279 729.275 442.442C730.352 441.604 731.128 440.441 731.488 439.126L735.233 399.127C736.562 399.728 738.009 400.025 739.467 399.996C740.734 399.964 741.982 399.684 743.141 399.17C744.299 398.656 745.345 397.92 746.218 397.002C747.092 396.085 747.776 395.005 748.231 393.823C748.687 392.642 748.905 391.383 748.873 390.117C748.841 388.851 748.56 387.605 748.046 386.447C747.532 385.29 746.794 384.246 745.876 383.373C744.957 382.501 743.876 381.818 742.693 381.363C741.51 380.908 740.25 380.69 738.983 380.722C738.4 380.72 737.818 380.78 737.248 380.902C736.628 380.232 735.875 379.699 735.036 379.338C734.198 378.976 733.292 378.795 732.379 378.804L691.671 379.854C691.333 379.866 690.998 379.908 690.667 379.978C689.774 380.144 688.928 380.5 688.184 381.02C687.44 381.541 686.817 382.214 686.355 382.996C685.894 383.777 685.606 384.648 685.51 385.55C685.414 386.452 685.512 387.364 685.799 388.225L692.873 440.132ZM736.001 396.411L738.666 386.88C738.969 385.778 738.976 384.617 738.687 383.512C738.816 383.512 738.93 383.451 739.059 383.45C740.886 383.413 742.654 384.1 743.975 385.362C745.295 386.624 746.061 388.358 746.103 390.183C746.146 392.008 745.463 393.775 744.203 395.098C742.943 396.42 741.209 397.19 739.382 397.237C738.201 397.274 737.032 396.989 736.001 396.411Z" fill="#2F2E41"/>
<path d="M690.667 379.978C691.534 384.931 701.285 388.413 713.01 387.808C723.791 387.312 732.607 383.531 734.222 379.049C733.624 378.872 733.002 378.79 732.379 378.804L691.671 379.854C691.334 379.866 690.998 379.908 690.667 379.978Z" fill="#3F3D56"/>
<path d="M715.158 418.152C715.212 418.138 715.263 418.116 715.309 418.086L721.056 414.328C721.126 414.283 721.183 414.221 721.222 414.148C721.262 414.076 721.283 413.994 721.283 413.911C721.283 413.828 721.262 413.747 721.222 413.674C721.183 413.601 721.126 413.539 721.057 413.494L715.083 409.586C715.028 409.55 714.967 409.525 714.902 409.512C714.838 409.5 714.771 409.5 714.707 409.513C714.642 409.527 714.581 409.552 714.527 409.589C714.473 409.626 714.426 409.673 714.39 409.728C714.354 409.783 714.329 409.845 714.317 409.909C714.305 409.974 714.305 410.04 714.319 410.104C714.332 410.169 714.359 410.23 714.396 410.284C714.433 410.338 714.48 410.384 714.536 410.42L719.871 413.91L714.762 417.251C714.663 417.316 714.591 417.413 714.557 417.526C714.523 417.639 714.531 417.761 714.578 417.869C714.626 417.977 714.71 418.065 714.816 418.117C714.923 418.168 715.044 418.181 715.158 418.152H715.158Z" fill="#FB0100"/>
<path d="M706.081 418.57C706.177 418.546 706.264 418.493 706.331 418.419C706.397 418.345 706.44 418.253 706.453 418.154C706.467 418.056 706.451 417.956 706.407 417.866C706.363 417.777 706.293 417.703 706.207 417.654L700.909 414.62L706.03 410.821C706.082 410.782 706.127 410.733 706.16 410.677C706.194 410.621 706.216 410.559 706.226 410.494C706.235 410.429 706.232 410.363 706.216 410.299C706.2 410.236 706.172 410.176 706.133 410.124C706.094 410.071 706.044 410.027 705.988 409.993C705.932 409.96 705.87 409.937 705.805 409.928C705.74 409.918 705.674 409.922 705.61 409.938C705.547 409.953 705.487 409.982 705.434 410.021L699.702 414.274C699.635 414.323 699.582 414.389 699.547 414.464C699.512 414.539 699.496 414.621 699.501 414.704C699.505 414.787 699.531 414.867 699.575 414.937C699.618 415.007 699.679 415.066 699.751 415.107L705.71 418.519C705.822 418.584 705.955 418.602 706.081 418.57Z" fill="#FB0100"/>
<path d="M714.587 421.445C714.635 421.433 714.681 421.413 714.723 421.387C714.78 421.353 714.828 421.308 714.867 421.255C714.906 421.202 714.934 421.142 714.949 421.079C714.965 421.015 714.968 420.949 714.958 420.884C714.948 420.819 714.925 420.757 714.891 420.701L706.744 407.322C706.675 407.21 706.564 407.129 706.435 407.098C706.306 407.067 706.171 407.088 706.058 407.157C705.944 407.226 705.863 407.336 705.832 407.465C705.801 407.593 705.822 407.729 705.89 407.842L714.037 421.221C714.093 421.312 714.176 421.383 714.275 421.423C714.374 421.463 714.483 421.471 714.587 421.445Z" fill="#FB0100"/>
<path d="M256.572 260.254H212.427C210.626 260.254 209.166 261.712 209.166 263.511V267.819C209.166 269.618 210.626 271.076 212.427 271.076H256.572C258.373 271.076 259.833 269.618 259.833 267.819V263.511C259.833 261.712 258.373 260.254 256.572 260.254Z" fill="#FB0100"/>
<path d="M282.304 281.898H186.695C184.895 281.898 183.435 283.356 183.435 285.155V289.462C183.435 291.261 184.895 292.719 186.695 292.719H282.304C284.104 292.719 285.564 291.261 285.564 289.462V285.155C285.564 283.356 284.104 281.898 282.304 281.898Z" fill="#E6E6E6"/>
<path d="M282.304 303.541H186.695C184.895 303.541 183.435 305 183.435 306.798V311.106C183.435 312.905 184.895 314.363 186.695 314.363H282.304C284.104 314.363 285.564 312.905 285.564 311.106V306.798C285.564 305 284.104 303.541 282.304 303.541Z" fill="#E6E6E6"/>
<path d="M290.408 376.018L290.625 376.701L290.636 376.723L297.154 396.518L304.653 419.328L318.761 462.195L318.898 468.854V468.877L319.946 522.443L317.04 529.705L320.311 541.612C320.311 541.612 318.806 523.614 310.738 533.95C306.169 539.823 300.824 545.833 296.437 551.468C302.83 554.051 309.325 556.389 315.923 558.479C317.348 558.935 318.784 559.367 320.22 559.8C320.527 559.891 320.835 559.982 321.143 560.073C343.015 566.533 365.626 570.164 388.423 570.875C389.608 570.909 390.771 570.932 391.899 570.955C392.298 570.966 392.685 570.977 393.073 570.977C394.349 570.989 395.614 571 396.89 571C399.466 571 402.03 570.962 404.583 570.886C423.476 570.354 442.259 567.817 460.616 563.317C460.49 555.747 460.148 546.903 459.658 537.456C459.43 532.823 454.314 527.803 454.006 522.954C453.79 519.312 458.382 515.885 458.143 512.186C456.593 489.41 454.656 498.153 453.22 482.024C453.072 480.442 452.935 478.928 452.81 477.482C451.886 467.124 451.248 460.647 451.248 460.647L457.379 422.049L467.009 361.448L466.268 360.23L465.436 359.82L414.645 334.71L411.887 327.653C411.084 325.62 409.69 323.873 407.884 322.638C406.079 321.403 403.945 320.735 401.756 320.721L368.298 320.584C366.562 320.577 364.849 320.982 363.301 321.768C361.753 322.554 360.415 323.698 359.398 325.103L350.339 337.635L290.408 376.018Z" fill="#3F3D56"/>
<path d="M326.476 452.657L318.898 468.854L313.724 479.918L304.824 526.462L300.368 531.185L296.551 514.463L256.595 523.324C255.284 516.051 256.244 523.57 255.435 515.591C255.663 515.363 255.902 515.136 256.141 514.908C256.779 514.316 257.315 513.758 257.304 513.223C256.848 485.7 258.215 438.861 269.634 410.484C271.422 405.851 273.78 401.458 276.654 397.406C276.881 397.098 277.098 396.791 277.315 396.484C282.579 389.119 285.907 381.868 290.625 376.712V376.701C290.654 376.677 290.681 376.65 290.705 376.621C290.722 376.612 290.737 376.601 290.75 376.587L323.16 359.422L324.55 398.441L325.541 426.488L326.476 452.657Z" fill="#3F3D56"/>
<path d="M443.339 457.257L452.805 477.488L456.109 484.533L465.006 531.072L469.448 535.784L473.274 519.066L475.072 518.698L507.497 511.99L516.947 541.97C519.077 538.425 519.917 534.254 519.323 530.163C518.729 526.071 516.739 522.309 513.69 519.514C513.044 518.931 512.506 518.363 512.522 517.826C513.06 485.454 511.077 426.344 493.174 402.015C487.489 394.294 484.077 386.604 479.114 381.232C479.098 381.217 479.098 381.201 479.083 381.201L467.004 361.447L466.267 360.234L465.437 359.82L443.339 457.257Z" fill="#3F3D56"/>
<path d="M385.994 311.074C410.577 311.074 430.506 291.168 430.506 266.613C430.506 242.058 410.577 222.153 385.994 222.153C361.411 222.153 341.482 242.058 341.482 266.613C341.482 291.168 361.411 311.074 385.994 311.074Z" fill="#FFB6B6"/>
<path d="M446.157 235.558C445.812 235.19 445.396 234.895 444.934 234.691C444.473 234.487 443.974 234.378 443.47 234.371L444.139 232.515C444.357 231.93 444.416 231.298 444.31 230.683C444.203 230.068 443.935 229.493 443.532 229.016C443.13 228.538 442.608 228.177 442.019 227.968C441.431 227.758 440.797 227.709 440.183 227.825L437.746 228.294L437.975 226.667C438.063 226.062 437.992 225.444 437.769 224.874C437.545 224.304 437.177 223.802 436.7 223.417C436.223 223.033 435.654 222.779 435.05 222.68C434.445 222.582 433.825 222.642 433.25 222.856C432.728 223.061 432.166 223.147 431.606 223.108C431.046 223.068 430.502 222.903 430.014 222.626C429.524 222.358 429.098 221.986 428.767 221.536C428.435 221.086 428.206 220.569 428.096 220.022L427.247 215.931L427.157 215.712C423.021 208.827 415.069 203.818 405.339 201.982C396.678 200.335 387.798 201.174 379.237 201.962C375.84 202.281 372.004 202.64 368.808 204.596C366.09 206.272 363.793 209.625 364.262 213.008C355.821 210.423 346.771 215.582 342.285 222.088C336.971 229.83 336.102 239.529 335.962 247.112C335.582 265.053 339.288 279.731 346.95 290.746C347.51 291.545 347.65 293.211 348.758 293.77L348.529 293.4C349.767 294.019 351.026 295.017 350.557 296.085C349.208 299.158 358.169 305.953 364.482 308.198C376 312.299 391.314 311.95 402.083 310.473L402.462 307.929C406.348 307.4 409.085 306.392 409.855 304.815C411.213 303.658 412.372 302.62 413.381 301.662L413.391 301.652C413.411 301.632 413.451 301.602 413.471 301.582C418.336 296.923 419.465 294.269 419.974 290.228C420.464 286.266 419.595 282.245 418.705 278.623C437.426 281.517 411.333 258.707 428.775 254.297C428.975 254.235 429.178 254.185 429.384 254.147C429.894 254.027 430.403 253.908 430.893 253.768C433.252 253.128 435.512 252.164 437.606 250.904C442.481 247.941 444.089 244.009 446.606 239.579C446.97 238.948 447.122 238.218 447.041 237.495C446.96 236.772 446.65 236.093 446.157 235.558Z" fill="#2F2E41"/>
<path d="M543.425 460.423C543.415 462.169 543.395 464.613 543.315 467.637C543.305 468.056 543.295 468.485 543.285 468.924C543.156 474.482 543.026 479.141 542.816 484.32C542.806 484.679 542.796 485.028 542.776 485.388C542.496 492.612 542.057 501.023 541.298 514.344C539.889 538.95 537.432 517.726 534.964 526.357C534.844 526.786 534.714 527.295 534.595 527.894C534.221 530.066 533.59 532.186 532.716 534.21C531.408 534.988 530.059 535.737 528.731 536.485C524.945 538.59 521.099 540.616 517.223 542.542C515.045 543.619 512.857 544.677 510.66 545.695C510.31 545.854 509.97 546.014 509.631 546.164C498.377 551.363 486.778 555.784 474.917 559.395C472.599 560.093 470.292 560.772 467.954 561.4C465.517 562.079 463.079 562.717 460.612 563.316C442.256 567.817 423.473 570.356 404.58 570.889C402.033 570.969 399.466 570.999 396.888 570.999C395.61 570.999 394.351 570.989 393.072 570.979C392.683 570.979 392.293 570.969 391.903 570.959C390.775 570.929 389.606 570.909 388.427 570.879C365.63 570.169 343.018 566.537 321.147 560.073L320.218 559.804C318.78 559.365 317.351 558.936 315.923 558.477C309.33 556.391 302.833 554.056 296.433 551.472C291.548 549.506 286.72 547.398 281.948 545.146C281.905 545.134 281.864 545.114 281.828 545.086C280.829 544.627 279.82 544.148 278.821 543.659C278.692 543.589 278.552 543.52 278.412 543.45C274.686 541.634 271 539.731 267.353 537.742C264.287 530.708 259.971 529.361 257.294 523.174C256.515 521.336 255.952 519.414 255.616 517.447C255.616 517.427 255.606 517.407 255.606 517.377C255.885 521.089 254.417 510.792 255.596 517.337C255.586 517.217 255.576 517.088 255.566 516.938C255.536 516.579 255.496 516.14 255.436 515.591C252.009 482.175 252.229 443.959 250.741 412.468C250.641 410.433 250.538 408.484 250.431 406.621C250.401 406.002 250.361 405.394 250.321 404.795C250.391 404.616 250.471 404.426 250.561 404.246C250.58 404.195 250.603 404.145 250.631 404.097C250.66 404.035 250.694 403.975 250.731 403.917C250.751 403.887 250.781 403.847 250.801 403.817C250.815 403.783 250.832 403.75 250.851 403.717C250.941 403.578 251.04 403.428 251.15 403.288C251.2 403.229 251.24 403.179 251.29 403.129C251.325 403.078 251.365 403.031 251.41 402.989C251.441 402.941 251.478 402.898 251.52 402.859C251.56 402.819 251.6 402.77 251.65 402.72C251.671 402.688 251.698 402.661 251.73 402.64C251.809 402.549 251.896 402.466 251.989 402.39C252.346 402.063 252.727 401.763 253.128 401.492C253.268 401.403 253.418 401.313 253.558 401.213C254.565 400.612 255.625 400.104 256.724 399.696C257.104 399.557 257.484 399.427 257.893 399.287C258.043 399.247 258.183 399.197 258.333 399.148C258.553 399.078 258.772 399.008 259.002 398.958C260.141 398.619 261.37 398.329 262.698 398.06C262.858 398.03 263.028 398 263.198 397.96C263.437 397.91 263.687 397.87 263.937 397.83C264.277 397.771 264.626 397.711 264.976 397.651C267.943 397.182 271.309 396.833 275.025 396.603C275.375 396.583 275.725 396.563 276.074 396.543C276.484 396.523 276.893 396.503 277.313 396.483C277.663 396.464 278.022 396.454 278.382 396.444C278.732 396.424 279.091 396.414 279.461 396.404C280.47 396.374 281.509 396.344 282.568 396.324C285.584 396.264 288.761 396.284 292.098 396.354C293.646 396.394 295.224 396.434 296.843 396.503C296.953 396.503 297.052 396.513 297.152 396.513C298.561 396.563 299.979 396.623 301.438 396.703C302.457 396.753 303.486 396.803 304.515 396.863C305.484 396.923 306.463 396.982 307.452 397.052C308.221 397.092 308.99 397.152 309.769 397.202C310.428 397.252 311.088 397.302 311.747 397.342L312.646 397.401C313.136 397.441 313.625 397.471 314.125 397.521C315.223 397.611 316.322 397.701 317.441 397.791C318.55 397.89 319.679 397.99 320.808 398.09C321.936 398.19 323.075 398.299 324.214 398.409C324.334 398.419 324.444 398.429 324.554 398.439C325.593 398.549 326.632 398.649 327.68 398.758C327.92 398.778 328.17 398.798 328.41 398.828C329.41 398.929 330.429 399.046 331.438 399.153C331.748 399.187 332.056 399.219 332.367 399.253C333.158 399.339 333.937 399.413 334.733 399.507C335.782 399.627 336.851 399.736 337.89 399.876C338.699 399.966 339.508 400.056 340.317 400.155C341.586 400.305 342.874 400.465 344.163 400.634C344.653 400.694 345.142 400.754 345.632 400.824C349.308 401.283 353.024 401.792 356.8 402.321C362.524 403.129 368.338 404.007 374.192 404.955C380.056 405.903 385.953 406.904 391.883 407.958C393.382 408.228 394.88 408.497 396.389 408.776C397.068 408.906 397.747 409.036 398.427 409.165C399.585 409.375 400.744 409.595 401.903 409.814C403.062 410.034 404.221 410.253 405.379 410.483C406.758 410.752 408.146 411.021 409.525 411.291C418.605 413.087 427.636 415.003 436.447 417.008C437.895 417.337 439.344 417.677 440.782 418.006C443.659 418.675 446.51 419.353 449.333 420.042C450.113 420.221 450.882 420.411 451.651 420.6C453.569 421.079 455.487 421.558 457.375 422.047L457.705 422.137C459.093 422.476 460.452 422.825 461.81 423.185C465.017 424.023 468.17 424.871 471.271 425.729C473.328 426.298 475.363 426.873 477.374 427.455C480.381 428.323 483.328 429.201 486.195 430.089C486.904 430.309 487.613 430.528 488.313 430.738C490.411 431.387 492.478 432.045 494.486 432.704C496.085 433.222 497.643 433.751 499.181 434.28C500.72 434.809 502.228 435.338 503.707 435.867C504.656 436.206 505.595 436.565 506.534 436.904C507.882 437.403 509.211 437.902 510.51 438.401C510.909 438.551 511.299 438.71 511.688 438.86C511.938 438.97 512.178 439.06 512.418 439.159C512.887 439.349 513.367 439.529 513.826 439.718C514.296 439.898 514.755 440.087 515.215 440.287C515.664 440.467 516.124 440.656 516.563 440.846C517.013 441.025 517.452 441.215 517.892 441.414C518.262 441.564 518.621 441.724 518.971 441.883C519.68 442.193 520.389 442.502 521.079 442.821C521.418 442.981 521.758 443.131 522.098 443.29L522.877 443.649C522.987 443.709 523.096 443.759 523.206 443.809C523.456 443.929 523.716 444.059 523.966 444.178C524.545 444.448 525.114 444.737 525.674 445.007C526.423 445.386 527.152 445.765 527.852 446.134C528.561 446.513 529.25 446.892 529.909 447.262C530.019 447.321 530.119 447.381 530.229 447.441C530.379 447.521 530.529 447.611 530.679 447.691C531.188 447.98 531.678 448.279 532.167 448.569C533.126 449.157 534.035 449.736 534.884 450.315C535.074 450.445 535.254 450.574 535.444 450.694C536.073 451.143 536.672 451.582 537.232 452.031C537.232 452.041 537.232 452.041 537.242 452.041C537.432 452.181 537.611 452.33 537.791 452.47C537.941 452.61 538.101 452.729 538.251 452.869C538.77 453.318 539.25 453.747 539.689 454.186C539.836 454.322 539.977 454.465 540.109 454.615C540.167 454.663 540.22 454.717 540.269 454.775C540.468 454.975 540.648 455.174 540.818 455.374C540.844 455.401 540.868 455.431 540.888 455.463C541.128 455.743 541.347 456.022 541.557 456.302C541.657 456.441 541.767 456.581 541.857 456.721C541.977 456.89 542.097 457.07 542.197 457.24C542.286 457.379 542.366 457.529 542.446 457.669C542.658 458.028 542.839 458.405 542.986 458.796C543.098 459.061 543.188 459.335 543.255 459.614C543.331 459.879 543.388 460.15 543.425 460.423Z" fill="#2F2E41"/>
<path opacity="0.2" d="M543.425 460.423C543.415 462.169 543.395 464.613 543.316 467.637C543.306 468.056 543.286 468.485 543.276 468.924C543.176 473.165 543.026 478.403 542.816 484.32C542.806 484.679 542.796 485.028 542.776 485.388C542.496 492.612 542.057 501.023 541.298 514.344C539.889 538.95 537.432 517.726 534.964 526.357C528.111 522.147 520.599 517.736 512.568 513.206C511.119 512.388 509.657 511.567 508.182 510.742C492.119 501.792 474.178 492.412 455.447 483.123C454.708 482.753 453.959 482.384 453.22 482.025C410.314 460.842 363.483 440.237 325.543 426.487C318.22 423.833 311.228 421.439 304.654 419.333C290.809 414.913 278.841 411.82 269.631 410.483C260.041 409.086 253.418 409.585 250.741 412.468C250.641 410.433 250.538 408.484 250.431 406.621C250.391 406.002 250.351 405.394 250.311 404.795C250.373 404.631 250.453 404.474 250.53 404.316C250.542 404.293 250.549 404.269 250.561 404.246C250.58 404.195 250.603 404.145 250.631 404.097C250.66 404.035 250.694 403.975 250.731 403.917C250.763 403.846 250.803 403.779 250.851 403.717C250.94 403.578 251.04 403.428 251.15 403.288C251.231 403.184 251.318 403.084 251.41 402.989C251.441 402.941 251.478 402.897 251.52 402.859C251.56 402.819 251.6 402.769 251.65 402.72C251.671 402.688 251.698 402.661 251.73 402.64C251.809 402.549 251.896 402.466 251.989 402.39C252.346 402.063 252.726 401.763 253.128 401.492C253.268 401.403 253.418 401.313 253.558 401.213C254.564 400.611 255.625 400.104 256.724 399.696C257.104 399.557 257.484 399.427 257.893 399.287C258.043 399.247 258.183 399.197 258.333 399.148C258.553 399.078 258.772 399.008 259.002 398.958C260.141 398.619 261.37 398.329 262.698 398.06C263.098 397.98 263.517 397.9 263.937 397.83C264.277 397.771 264.626 397.711 264.976 397.651C267.943 397.182 271.309 396.833 275.025 396.603C275.375 396.583 275.725 396.563 276.074 396.543C276.484 396.523 276.893 396.503 277.313 396.483C277.663 396.463 278.022 396.453 278.382 396.444C278.731 396.424 279.091 396.414 279.461 396.404C280.47 396.374 281.509 396.344 282.567 396.324C285.584 396.274 288.761 396.294 292.098 396.364C293.646 396.394 295.224 396.444 296.843 396.513C296.943 396.513 297.052 396.523 297.152 396.523C298.561 396.563 299.989 396.633 301.438 396.703C302.457 396.753 303.486 396.803 304.515 396.863C305.484 396.922 306.463 396.982 307.452 397.052C308.221 397.092 308.99 397.152 309.769 397.202C310.428 397.252 311.088 397.302 311.747 397.341C312.536 397.401 313.325 397.461 314.125 397.521C315.223 397.611 316.322 397.701 317.441 397.791C318.55 397.89 319.679 397.99 320.808 398.09C321.936 398.19 323.075 398.299 324.214 398.409C324.334 398.419 324.444 398.429 324.554 398.439C325.593 398.549 326.632 398.649 327.68 398.758C333.494 399.347 339.478 400.036 345.632 400.824C349.308 401.293 353.031 401.795 356.8 402.331C362.524 403.139 368.338 404.017 374.192 404.955C380.056 405.903 385.953 406.904 391.883 407.958C393.382 408.228 394.88 408.497 396.389 408.776C398.227 409.116 400.065 409.461 401.903 409.814C403.062 410.034 404.221 410.253 405.379 410.483C406.758 410.752 408.146 411.021 409.525 411.291C418.606 413.087 427.636 415.003 436.447 417.008C437.895 417.337 439.344 417.677 440.782 418.006C443.659 418.675 446.51 419.353 449.333 420.041C450.113 420.231 450.882 420.421 451.651 420.61C453.579 421.089 455.487 421.568 457.375 422.047V422.057C457.485 422.077 457.595 422.107 457.705 422.137C459.083 422.486 460.452 422.835 461.81 423.195C465.017 424.033 468.171 424.878 471.271 425.729C473.328 426.308 475.366 426.876 477.374 427.455C480.381 428.333 483.328 429.211 486.195 430.089C486.904 430.309 487.614 430.528 488.313 430.738C490.411 431.397 492.469 432.052 494.486 432.704C496.085 433.222 497.643 433.751 499.182 434.28C500.72 434.809 502.228 435.338 503.707 435.867C504.666 436.206 505.605 436.555 506.534 436.894C507.892 437.393 509.211 437.892 510.51 438.401C510.909 438.551 511.299 438.71 511.688 438.86C512.418 439.139 513.127 439.429 513.826 439.718C514.296 439.898 514.755 440.087 515.215 440.287C515.664 440.467 516.124 440.656 516.563 440.846C517.013 441.025 517.452 441.215 517.892 441.414C518.262 441.564 518.621 441.724 518.971 441.883C519.68 442.193 520.389 442.502 521.079 442.821C521.418 442.981 521.758 443.131 522.098 443.29L522.877 443.65C522.987 443.709 523.097 443.759 523.206 443.809C524.056 444.208 524.875 444.607 525.674 445.007C526.423 445.386 527.152 445.765 527.852 446.134C528.681 446.573 529.47 447.002 530.229 447.441C530.379 447.521 530.529 447.611 530.679 447.691C531.188 447.98 531.678 448.279 532.167 448.569C533.126 449.157 534.035 449.736 534.884 450.315C535.723 450.894 536.503 451.462 537.232 452.031C537.232 452.041 537.232 452.041 537.242 452.041C537.591 452.32 537.931 452.6 538.251 452.869C538.77 453.318 539.25 453.747 539.689 454.186C539.837 454.322 539.977 454.465 540.109 454.615C540.167 454.663 540.221 454.717 540.269 454.775C540.478 455.004 540.688 455.234 540.888 455.463C541.128 455.743 541.348 456.022 541.557 456.302C541.657 456.441 541.767 456.581 541.857 456.721C541.977 456.89 542.097 457.07 542.197 457.24C542.287 457.379 542.367 457.529 542.446 457.669C542.658 458.028 542.839 458.405 542.986 458.796C543.095 459.062 543.185 459.336 543.256 459.614C543.331 459.879 543.388 460.15 543.425 460.423Z" fill="black"/>
</g>
<defs>
<clipPath id="clip0_2_7">
<rect width="786" height="571" fill="white"/>
</clipPath>
</defs>
</svg>
